<?xml version="1.0" standalone="no"?>
<!DOCTYPE svg PUBLIC "-//W3C//DTD SVG 20010904//EN"
 "http://www.w3.org/TR/2001/REC-SVG-20010904/DTD/svg10.dtd">
<svg version="1.0" xmlns="http://www.w3.org/2000/svg"
 width="257.000000pt" height="257.000000pt" viewBox="0 0 257.000000 257.000000"
 preserveAspectRatio="xMidYMid meet">
<metadata>
Created by potrace 1.14, written by Peter Selinger 2001-2017
</metadata>
<g transform="translate(0.000000,257.000000) scale(0.100000,-0.100000)"
fill="#000000" stroke="none">
<path d="M1254 2482 c-16 -15 -50 -43 -74 -62 -25 -19 -58 -47 -74 -62 -28
-25 -32 -26 -62 -13 -18 7 -35 11 -38 8 -3 -3 -13 0 -22 8 -10 8 -18 12 -18
10 -1 -1 -34 7 -74 19 -40 12 -74 21 -76 19 -2 -2 -30 -55 -63 -118 -40 -76
-67 -116 -79 -118 -20 -3 -77 -9 -184 -19 -36 -3 -66 -6 -67 -7 -1 -1 -4 -33
-7 -72 -12 -142 -18 -190 -24 -196 -4 -4 -58 -33 -120 -65 -97 -51 -112 -62
-107 -79 3 -11 7 -27 9 -35 2 -8 16 -53 31 -100 14 -47 28 -90 30 -96 2 -7 -4
-20 -13 -30 -51 -57 -152 -185 -152 -193 0 -5 3 -11 8 -13 4 -1 26 -28 49 -58
23 -30 50 -64 60 -75 53 -61 54 -62 44 -86 -19 -46 -74 -229 -70 -233 2 -2 54
-29 114 -61 61 -31 113 -60 117 -64 6 -6 11 -44 23 -196 4 -38 7 -71 8 -72 2
-1 29 -5 62 -8 33 -3 80 -8 105 -11 25 -3 57 -6 72 -7 24 -1 34 -14 89 -116
34 -64 63 -117 65 -119 1 -2 56 13 123 32 66 20 126 36 132 36 9 0 143 -105
187 -147 19 -18 34 -16 62 9 97 88 171 140 193 135 12 -3 32 -8 45 -11 12 -2
27 -8 32 -11 6 -4 22 -8 36 -11 14 -3 45 -11 70 -20 35 -12 49 -13 60 -3 8 6
14 15 14 19 0 4 24 51 54 105 34 62 62 100 73 101 10 2 47 6 83 9 140 12 153
14 160 22 5 4 11 40 14 78 14 152 17 179 21 184 3 2 56 32 118 66 65 36 111
68 110 76 0 8 -17 66 -37 128 l-36 115 82 100 c45 56 86 102 90 104 4 2 -4 15
-17 30 -54 61 -78 89 -115 137 l-39 50 39 130 c22 71 38 129 37 130 -1 0 -20
10 -42 22 -22 12 -71 38 -110 58 -38 20 -73 40 -78 44 -4 4 -9 32 -12 62 -3
30 -7 74 -10 99 -3 25 -6 60 -7 78 -1 27 -5 32 -27 33 -14 0 -44 3 -66 5 -52
7 -102 11 -142 13 -29 1 -35 8 -79 89 -26 48 -54 100 -62 115 -8 16 -19 30
-26 33 -6 2 -65 -14 -131 -35 l-120 -38 -100 81 c-55 45 -102 84 -105 88 -3 4
-19 -5 -36 -20z"/>
</g>
</svg>
